FILE "Primal Rage (1994)(Time Warner)(US)[301108-0182].img" BINARY
  TRACK 01 AUDIO
    INDEX 01 00:00:00
  TRACK 02 AUDIO
    INDEX 00 00:06:21
    INDEX 01 00:08:20
  TRACK 03 AUDIO
    INDEX 00 00:17:65
    INDEX 01 00:19:64
  TRACK 04 AUDIO
    INDEX 00 00:27:47
    INDEX 01 00:29:46
  TRACK 05 AUDIO
    INDEX 00 00:34:49
    INDEX 01 00:36:48
  TRACK 06 AUDIO
    INDEX 00 01:09:17
    INDEX 01 01:11:16
  TRACK 07 AUDIO
    INDEX 00 01:16:19
    INDEX 01 01:18:18
  TRACK 08 AUDIO
    INDEX 00 01:27:21
    INDEX 01 01:29:20
  TRACK 09 AUDIO
    INDEX 00 02:43:51
    INDEX 01 02:45:50
  TRACK 10 AUDIO
    INDEX 00 02:50:53
    INDEX 01 02:52:52
  TRACK 11 AUDIO
    INDEX 00 03:19:72
    INDEX 01 03:21:71
  TRACK 12 AUDIO
    INDEX 00 03:26:74
    INDEX 01 03:28:73
  TRACK 13 AUDIO
    INDEX 00 04:04:20
    INDEX 01 04:06:19
  TRACK 14 AUDIO
    INDEX 00 05:29:27
    INDEX 01 05:31:26
  TRACK 15 AUDIO
    INDEX 00 06:04:16
    INDEX 01 06:06:14
  TRACK 16 AUDIO
    INDEX 00 06:47:33
    INDEX 01 06:49:32
  TRACK 17 AUDIO
    INDEX 00 06:56:15
    INDEX 01 06:58:14
  TRACK 18 AUDIO
    INDEX 00 07:34:35
    INDEX 01 07:36:34
  TRACK 19 AUDIO
    INDEX 00 08:50:47
    INDEX 01 08:52:46
  TRACK 20 AUDIO
    INDEX 00 08:57:48
    INDEX 01 08:59:47
  TRACK 21 AUDIO
    INDEX 00 10:24:20
    INDEX 01 10:26:19
  TRACK 22 AUDIO
    INDEX 00 11:48:26
    INDEX 01 11:50:25
  TRACK 23 AUDIO
    INDEX 00 13:14:26
    INDEX 01 13:16:25
  TRACK 24 AUDIO
    INDEX 00 15:08:55
    INDEX 01 15:10:54
  TRACK 25 AUDIO
    INDEX 00 16:29:47
    INDEX 01 16:31:46
  TRACK 26 AUDIO
    INDEX 00 17:51:34
    INDEX 01 17:53:33
  TRACK 27 AUDIO
    INDEX 00 19:10:21
    INDEX 01 19:12:20
  TRACK 28 AUDIO
    INDEX 00 20:35:40
    INDEX 01 20:37:39
  TRACK 29 AUDIO
    INDEX 00 22:02:38
    INDEX 01 22:04:37
